<?xml version="1.0" encoding="utf-8"?>
<!-- Generator: Adobe Illustrator 25.2.1, SVG Export Plug-In . SVG Version: 6.00 Build 0)  -->
<svg version="1.1" id="Слой_1" xmlns="http://www.w3.org/2000/svg" xmlns:xlink="http://www.w3.org/1999/xlink" x="0px" y="0px"
	 viewBox="0 0 500 500" style="enable-background:new 0 0 500 500;" xml:space="preserve">
<style type="text/css">
	.st0{fill:none;}
	.st1{fill:none;stroke:#1D1D1B;stroke-width:0.5;stroke-miterlimit:10;}
	.st2{fill:none;stroke:#1D1D1B;stroke-width:0.25;stroke-miterlimit:10;}
	.st3{fill:url(#birthday);}
</style>
<pattern  width="100" height="100" patternUnits="userSpaceOnUse" id="birthday" viewBox="0 -100 100 100" style="overflow:visible;">
	<g>
		<rect x="0" y="-100" class="st0" width="100" height="100"/>
		<path class="st1" d="M23.49-53.28c-0.97,2.86-0.62,6.69,0.95,9.73c-0.48,0.37-0.98,0.69-1.49,0.96c-0.52-0.25-1.01-0.56-1.48-0.91
			c0.58-2.71,0.36-5.61-0.67-7.8c-0.91-1.92-2.49-3.29-4.28-3.9c0.75-3.08,3.35-5.36,6.43-5.36c2.06,0,3.9,1.01,5.12,2.6
			C26.03-57.26,24.27-55.59,23.49-53.28z"/>
		<path class="st1" d="M21.46-43.5c-0.37,1.75-1.07,3.41-2.09,4.77C15-38.8,10.46-42.01,8.76-45.61c-1.7-3.6-0.38-7.79,2.94-9.36
			c1.55-0.73,3.26-0.76,4.82-0.23c1.78,0.62,3.37,1.98,4.28,3.9C21.82-49.1,22.04-46.21,21.46-43.5z"/>
		<path class="st1" d="M36.08-48.98c-1.28,3.77-5.48,7.36-9.76,8.03c-0.75-0.75-1.37-1.63-1.87-2.6c-1.57-3.03-1.92-6.87-0.95-9.73
			c0.79-2.31,2.54-3.99,4.58-4.67c1.29-0.43,2.69-0.46,4.04,0C35.58-56.76,37.36-52.75,36.08-48.98z"/>
		<path class="st2" d="M26.3-40.95l-0.78,0.25c-0.11,0.03,0.09,0.27,0.09,0.27l0.14,0.08c0.1-0.04,0.29,0.03,0.36,0.12l0.26,0.04
			c0.12,0,0.12-0.19,0.08-0.31L26.3-40.95z"/>
		<path class="st2" d="M22.98-42.51L22.34-42c-0.09,0.07,0.18,0.23,0.18,0.23l0.16,0.03c0.08-0.07,0.28-0.08,0.37-0.02l0.26-0.05
			c0.12-0.04,0.05-0.22-0.03-0.32L22.98-42.51z"/>
		<path class="st2" d="M19.38-38.67l-0.25,0.78c-0.04,0.11,0.27,0.09,0.27,0.09l0.15-0.07c0.03-0.11,0.19-0.22,0.3-0.22l0.19-0.19
			c0.07-0.1-0.08-0.21-0.2-0.25L19.38-38.67z"/>
		<line class="st2" x1="22.87" y1="-41.81" x2="22.86" y2="-31.13"/>
		<line class="st2" x1="19.69" y1="-38.02" x2="22.86" y2="-31.13"/>
		<line class="st2" x1="25.98" y1="-40.4" x2="22.86" y2="-31.13"/>
		<path class="st1" d="M40.27-90.27l17.66,10.24c1.21,0.7,2.51,1.26,3.86,1.63c0.04,0.01,0.07,0.02,0.11,0.03
			c4.42,1.18,9.09,1.15,13.53,0.06l12.84-3.17"/>
		<polyline class="st1" points="41.81,-89.37 36.49,-81.42 40.5,-83.84 40.16,-79.49 45.95,-86.97 47.89,-85.84 43.28,-79.24 
			47.12,-82.04 46.79,-77.31 51.25,-83.89 55.29,-81.55 51.23,-75.76 54.59,-76.94 55.15,-73.05 58.99,-79.46 62.69,-78.17 
			59.13,-73.79 62.86,-75.49 62.97,-72.86 66.46,-77.58 68.61,-77.48 66.41,-72.83 69.32,-74.38 70.03,-71.85 72.45,-77.74 
			74.67,-78.13 74.26,-72.39 75.87,-75.45 77.01,-72.83 77.21,-78.75 79.96,-79.43 79.75,-74.29 82.22,-77.86 83.36,-75.97 
			84.1,-80.45 87.19,-81.21 		"/>
		<line class="st1" x1="61.06" y1="-70.83" x2="61.82" y2="-68.62"/>
		<line class="st1" x1="73.79" y1="-69.35" x2="71.89" y2="-68.38"/>
		<line class="st1" x1="55.36" y1="-69.88" x2="56.04" y2="-68.65"/>
		<line class="st1" x1="45.89" y1="-73.27" x2="44" y2="-72.37"/>
		<line class="st1" x1="51.29" y1="-68.42" x2="51.18" y2="-66.05"/>
		<line class="st1" x1="82.81" y1="-71.35" x2="83.51" y2="-69.49"/>
		<line class="st1" x1="88.13" y1="-74.85" x2="88.65" y2="-72.5"/>
		<line class="st1" x1="37.64" y1="-77.87" x2="35.76" y2="-76.12"/>
		<line class="st1" x1="50.49" y1="-72.88" x2="49.09" y2="-70.86"/>
		<line class="st1" x1="68.61" y1="-66.06" x2="69.55" y2="-64.11"/>
		<path class="st1" d="M76.09-8.29H57.51c-2.44,0-4.42-1.98-4.42-4.42v0c0-0.55,0.45-1,1-1h25.65c0.43,0,0.78,0.35,0.78,0.78v0.22
			C80.52-10.27,78.54-8.29,76.09-8.29z M79.76-17.51H53.67l-0.03,3.8h26.09L79.76-17.51z M80.52-18.8L80.52-18.8
			c0-2.28-1.85-4.13-4.13-4.13H57.21c-2.28,0-4.13,1.85-4.13,4.13v0.35c0,0.52,0.42,0.95,0.95,0.95h25.19
			C79.94-17.51,80.52-18.09,80.52-18.8z M53.89-21.27l0.28,0.29c0.94,0.97,2.27,1.17,3.38,0.52L58-20.72
			c0.8-0.47,1.74-0.44,2.52,0.07l0.81,0.53c1.18,0.78,3.39,0.58,4.46-0.41l0.81-0.37c0.81-0.37,1.71-0.32,2.49,0.13l1.28,0.74
			c0.7,0.4,1.51,0.42,2.22,0.05l0.42-0.22c1.46-0.76,3.14-0.55,4.45,0.55v0c0.5,0.42,1.17,0.31,1.56-0.26l0.75-1.3 M56.97-22.93
			l-0.04-5.23 M57.31-28.73c0.3-0.51,0.32-1.19,0.05-1.73l-0.44-0.89l-0.82,1.41c-0.24,0.41-0.16,0.97,0.17,1.26l0.65,0.59
			L57.31-28.73z M60.52-28.04l0.04,5.23 M60.9-28.61c0.3-0.51,0.32-1.19,0.05-1.73l-0.44-0.89l-0.82,1.41
			c-0.24,0.41-0.16,0.97,0.17,1.26l0.65,0.59L60.9-28.61z M64.06-28.04l0.04,5.23 M64.44-28.61c0.3-0.51,0.32-1.19,0.05-1.73
			l-0.44-0.89l-0.82,1.41c-0.24,0.41-0.16,0.97,0.17,1.26l0.65,0.59L64.44-28.61z M68.03-28.16l0.04,5.23 M68.41-28.73
			c0.3-0.51,0.32-1.19,0.05-1.73l-0.44-0.89l-0.82,1.41c-0.24,0.41-0.16,0.97,0.17,1.26l0.65,0.59L68.41-28.73z M71.65-22.93
			l-0.04-5.23 M71.99-28.73c0.3-0.51,0.32-1.19,0.05-1.73l-0.44-0.89l-0.82,1.41c-0.24,0.41-0.16,0.97,0.17,1.26l0.65,0.59
			L71.99-28.73z M75.51-22.93l-0.04-5.23 M75.85-28.73c0.3-0.51,0.32-1.19,0.05-1.73l-0.44-0.89l-0.82,1.41
			c-0.24,0.41-0.16,0.97,0.17,1.26l0.65,0.59L75.85-28.73z"/>
	</g>
</pattern>
<rect x="0.78" y="-0.59" class="st3" width="500" height="500"/>
</svg>
