<svg width="268" height="298" viewBox="0 0 268 298" fill="none" xmlns="http://www.w3.org/2000/svg">
<path d="M253.17 9.34882C261.116 16.1354 265.432 26.4792 266.378 39.4499C267.325 52.4231 264.895 67.9843 259.389 85.1275C248.377 119.412 225.091 159.925 192.126 198.522C159.16 237.12 122.789 266.457 90.6491 282.696C74.5784 290.817 59.5888 295.651 46.6272 296.745C33.6682 297.84 22.7765 295.195 14.8305 288.408C6.88446 281.621 2.56822 271.278 1.6218 258.307C0.67519 245.334 3.10469 229.773 8.61104 212.629C19.623 178.345 42.9093 137.832 75.8745 99.2345C108.84 60.6373 145.211 31.3 177.351 15.0604C193.422 6.94002 208.411 2.10611 221.373 1.01161C234.332 -0.0826967 245.224 2.56228 253.17 9.34882Z" stroke="black"/>
</svg>
