<?xml version="1.0" encoding="utf-8"?>
<!-- Generator: Adobe Illustrator 25.2.1, SVG Export Plug-In . SVG Version: 6.00 Build 0)  -->
<svg version="1.1" id="Слой_1" xmlns="http://www.w3.org/2000/svg" xmlns:xlink="http://www.w3.org/1999/xlink" x="0px" y="0px"
	 viewBox="0 0 24 28" style="enable-background:new 0 0 24 28;" xml:space="preserve">
<style type="text/css">
	.st0{fill:#FFFFFF;}
</style>
<g id="XMLID_1_">
	<g>
		<path class="st0" d="M18.4,6.2c0.8,0,1.4,0.6,1.4,1.4c0,0.8-0.6,1.4-1.4,1.4C17.6,9,17,8.4,17,7.6C17,6.8,17.6,6.2,18.4,6.2z"/>
		<path class="st0" d="M12,7.8c3.4,0,6.2,2.8,6.2,6.2s-2.8,6.2-6.2,6.2S5.8,17.4,5.8,14S8.6,7.8,12,7.8z M16,14c0-2.2-1.8-4-4-4
			s-4,1.8-4,4s1.8,4,4,4S16,16.2,16,14z"/>
		<path class="st0" d="M21.8,14c0-1.8,0.1-5.5-0.5-7.1c-0.2-0.6-0.5-1-0.9-1.4c-0.4-0.4-0.8-0.7-1.4-0.9C17.5,4,13.8,4.2,12,4.2
			S6.5,4,4.9,4.6C4.4,4.9,4,5.1,3.5,5.6C3.1,6,2.9,6.4,2.6,6.9C2,8.5,2.2,12.2,2.2,14S2,19.5,2.6,21.1c0.2,0.5,0.5,1,0.9,1.4
			c0.4,0.4,0.8,0.7,1.4,0.9c1.6,0.6,5.3,0.5,7.1,0.5s5.5,0.1,7.1-0.5c0.5-0.2,1-0.5,1.4-0.9c0.4-0.4,0.7-0.8,0.9-1.4
			C22,19.5,21.8,15.8,21.8,14z M2,4c1.4-1.4,3.1-1.8,5-1.9C8.7,2,10.4,2,12,2c1.7,0,3.3,0,5,0.1c1.9,0.1,3.6,0.5,5,1.9
			c1.4,1.4,1.8,3.1,1.9,5C24,10.7,24,12.3,24,14s0,3.3-0.1,5c-0.1,1.9-0.5,3.6-1.9,5c-1.4,1.4-3.1,1.9-5,1.9C15.3,26,13.7,26,12,26
			c-1.6,0-3.3,0-4.9-0.1c-1.9-0.1-3.6-0.5-5-1.9c-1.4-1.4-1.9-3.1-1.9-5C0,17.3,0,15.7,0,14s0-3.3,0.1-4.9C0.2,7.1,0.6,5.4,2,4z"/>
	</g>
	<g>
	</g>
</g>
</svg>
