<?xml version="1.0" encoding="utf-8"?>
<!-- Generator: Adobe Illustrator 25.2.1, SVG Export Plug-In . SVG Version: 6.00 Build 0)  -->
<svg version="1.1" id="Слой_1" xmlns="http://www.w3.org/2000/svg" xmlns:xlink="http://www.w3.org/1999/xlink" x="0px" y="0px"
	 viewBox="0 0 26 28" style="enable-background:new 0 0 26 28;" xml:space="preserve">
<style type="text/css">
	.st0{fill:#FFFFFF;}
</style>
<g>
	<g>
		<g id="XMLID_1_">
			<g>
				<path class="st0" d="M22.9,14c0.1-0.1,0.4-0.1,0.5,0l0,0l-0.5,0.5l0-0.1C22.7,14.3,22.7,14.1,22.9,14z"/>
				<path class="st0" d="M3.1,13.5c0.1,0.1,0.1,0.4,0,0.5c-0.1,0.1-0.4,0.1-0.5,0l0,0L3.1,13.5L3.1,13.5z"/>
				<path class="st0" d="M4.6,15l8.4,8.4l11.3-11.3L13,0.8L1.7,12.1l1.4,1.4L2.6,14L1,12.4c-0.1-0.1-0.1-0.4,0-0.5L12.7,0.1
					c0.1-0.1,0.4-0.1,0.5,0L25,11.9c0.1,0.1,0.1,0.3,0,0.5L23.4,14l0,0c-0.1-0.1-0.4-0.1-0.5,0c-0.1,0.1-0.1,0.3,0,0.5l0,0.1
					l-9.6,9.6c-0.1,0.1-0.2,0.1-0.2,0.1s-0.2,0-0.2-0.1l-8.7-8.7C4,15.3,4,15.1,4.1,15C4.2,14.8,4.4,14.8,4.6,15z"/>
				<path class="st0" d="M13,4.6l-9.6,9.6l-1.6,1.6L13,27.2l11.3-11.3l-1.4-1.4l0.5-0.5l1.6,1.6c0.1,0.1,0.1,0.4,0,0.5L13.3,27.9
					C13.2,28,13.1,28,13,28s-0.2,0-0.2-0.1L1,16.1c-0.1-0.1-0.1-0.4,0-0.5L2.6,14l0,0c0.1,0.1,0.3,0.1,0.5,0c0.1-0.1,0.1-0.4,0-0.5
					l0,0l9.6-9.6c0.1-0.1,0.4-0.1,0.5,0l6.9,6.9c0.1,0.1,0.1,0.4,0,0.5c-0.1,0.1-0.4,0.1-0.5,0L13,4.6z"/>
			</g>
			<g>
			</g>
		</g>
	</g>
</g>
</svg>
