<?xml version="1.0" encoding="utf-8"?>
<!-- Generator: Adobe Illustrator 25.2.1, SVG Export Plug-In . SVG Version: 6.00 Build 0)  -->
<svg version="1.1" id="Слой_1" xmlns="http://www.w3.org/2000/svg" xmlns:xlink="http://www.w3.org/1999/xlink" x="0px" y="0px"
	 viewBox="0 0 26 28" style="enable-background:new 0 0 26 28;" xml:space="preserve">
<g>
	<g id="XMLID_1_">
		<g>
			<path d="M1,16c-0.1-0.1-0.1-0.4,0-0.5l1.6-1.6C2.6,14,2.7,14,2.8,14c0.1,0,0.2,0,0.3-0.1c0.1-0.1,0.1-0.4,0-0.5l9.6-9.6
				c0.1-0.1,0.4-0.1,0.5,0l6.9,6.9c0.1,0.1,0.1,0.4,0,0.5c-0.1,0.1-0.4,0.1-0.5,0L13,4.5l-9.6,9.5l0,0.1l-1.6,1.6L13,27.1l11.3-11.3
				l-1.4-1.4l0.5-0.5l1.6,1.6c0.1,0.1,0.1,0.4,0,0.5L13.3,27.8c-0.1,0.1-0.2,0.1-0.3,0.1c-0.1,0-0.2,0-0.2-0.1L1,16z"/>
			<path d="M3.1,13.4c0.1,0.1,0.1,0.4,0,0.5C3,14,2.9,14,2.8,14c-0.1,0-0.2,0-0.2-0.1L3.1,13.4z"/>
			<path d="M25,12.3l-1.6,1.6l-0.5,0.5v0.1l-9.6,9.6c-0.1,0.1-0.2,0.1-0.2,0.1s-0.2,0-0.2-0.1l-8.7-8.7C4,15.2,4,15,4.1,14.9
				c0-0.1,0.1-0.1,0.1-0.1c0.1-0.1,0.3,0,0.4,0.1l8.4,8.4L24.3,12L13,0.7L1.7,12l1.4,1.4l-0.5,0.5L1,12.3c-0.1-0.1-0.1-0.4,0-0.5
				L12.7,0c0.1-0.1,0.4-0.1,0.5,0L25,11.8C25.1,11.9,25.1,12.1,25,12.3z"/>
		</g>
		<g>
		</g>
	</g>
</g>
</svg>
