<?xml version="1.0" encoding="utf-8"?>
<!-- Generator: Adobe Illustrator 25.2.1, SVG Export Plug-In . SVG Version: 6.00 Build 0)  -->
<svg version="1.1" id="Слой_1" xmlns="http://www.w3.org/2000/svg" xmlns:xlink="http://www.w3.org/1999/xlink" x="0px" y="0px"
	 viewBox="0 0 20 28" style="enable-background:new 0 0 20 28;" xml:space="preserve">
<style type="text/css">
	.st0{fill:#FFFFFF;}
</style>
<g id="XMLID_1_">
	<g>
		<path class="st0" d="M11.7,16.2c3.6,0,4.7-5.2,4.7-8c0-3.7-2.6-5.7-6.2-5.7c-4.1,0-7.3,3-7.3,7.1c0,2,1.2,3.1,1.2,3.5
			c0,0.2,0,0.5-0.1,0.8c-0.1,0.5-0.4,1.1-0.7,1.1c-0.1,0-0.2,0-0.3-0.1c-2.2-0.7-3-3.7-3-5.7C0,3.6,5.3,0,10.6,0
			C15.5,0,20,3.4,20,8.6c0,4.9-2.5,10.2-8,10.2c-1.3,0-3-0.7-3.6-1.9c-1.2,4.7-1.1,5.4-3.7,9L4.4,26l-0.1-0.2c-0.1-1-0.2-2-0.2-2.9
			c0-2.4,0.9-5.7,1.6-8.5c0.2-0.9,0.4-1.7,0.6-2.4c-0.4-0.8-0.5-1.8-0.5-2.7c0-1.6,1.1-3.6,2.9-3.6c1.3,0,2,1,2,2.2
			c0,2-1.4,3.9-1.4,5.9C9.3,15.3,10.4,16.2,11.7,16.2z"/>
	</g>
	<g>
	</g>
</g>
</svg>
