<?xml version="1.0" encoding="utf-8"?>
<!-- Generator: Adobe Illustrator 25.2.1, SVG Export Plug-In . SVG Version: 6.00 Build 0)  -->
<svg version="1.1" id="Слой_1" xmlns="http://www.w3.org/2000/svg" xmlns:xlink="http://www.w3.org/1999/xlink" x="0px" y="0px"
	 viewBox="0 0 512 512" style="enable-background:new 0 0 512 512;" xml:space="preserve">
<style type="text/css">
	.st0{fill:#FFFFFF;}
</style>
<g id="XMLID_1_">
	<g>
		<path class="st0" d="M378.8,352.3L512,487.5L487.8,512L355.1,377.3c-37.8,34.2-87.4,55.3-141.9,55.3C95.7,432.6,0,335.6,0,216.3
			C0,97,95.7,0,213.2,0c117.5,0,213.2,97,213.2,216.3C426.4,267.8,408.5,315.1,378.8,352.3z M392.2,216.3
			c0-100.1-80.3-181.6-179-181.6c-98.7,0-179,81.5-179,181.6c0,100.1,80.3,181.6,179,181.6C311.9,397.9,392.2,316.4,392.2,216.3z"/>
	</g>
	<g>
	</g>
</g>
</svg>
