<?xml version="1.0" encoding="utf-8"?>
<!-- Generator: Adobe Illustrator 25.2.1, SVG Export Plug-In . SVG Version: 6.00 Build 0)  -->
<svg version="1.1" id="Слой_1" xmlns="http://www.w3.org/2000/svg" xmlns:xlink="http://www.w3.org/1999/xlink" x="0px" y="0px"
	 viewBox="0 0 512 512" style="enable-background:new 0 0 512 512;" xml:space="preserve">
<style type="text/css">
	.st0{fill:#FFFFFF;}
</style>
<g id="XMLID_1_">
	<g>
		<path class="st0" d="M499.1,168.9c2.4,2.9,3.4,6.6,2.7,10.2L445,499.5c-1,6.1-6.2,10.4-12.3,10.4H79.5c-6.1,0-11.3-4.4-12.3-10.4
			l-57-320.4c-0.7-3.7,0.3-7.5,2.7-10.3c2.5-2.7,6-4.4,9.7-4.4h150.1C188.1,89.6,214.7,2,255.5,2c46.8,0,72.8,89,86.2,162.5h147.7
			C493.1,164.5,496.7,166.1,499.1,168.9z M422.2,484.9l52.1-295.2H345.9c4.3,28.1,6.9,51.6,7.9,62.9c0.5,7-4.4,13.1-11.4,13.7
			c-6.7,0.7-13-4.4-13.6-11.4c-1.9-20.2-4.8-42.6-8.5-65.2H193.6c-4,21.6-7.7,43.7-10.5,65.7c-0.8,6.3-6.2,10.9-12.4,10.9
			c-0.6,0-1.2,0-1.7-0.1c-6.9-0.9-11.7-7.2-10.8-14.1c1.8-14.5,5-37,9.7-62.5H37.6L90,484.9H422.2z M198.7,164.4H316
			c-13.8-71.1-35.5-137.3-60.5-137.3C236.9,27.1,214.8,88.7,198.7,164.4z"/>
	</g>
	<g>
	</g>
</g>
</svg>
