<?xml version="1.0" encoding="utf-8"?>
<!-- Generator: Adobe Illustrator 25.2.1, SVG Export Plug-In . SVG Version: 6.00 Build 0)  -->
<svg version="1.1" id="Слой_1" xmlns="http://www.w3.org/2000/svg" xmlns:xlink="http://www.w3.org/1999/xlink" x="0px" y="0px"
	 viewBox="0 0 26 28" style="enable-background:new 0 0 26 28;" xml:space="preserve">
<style type="text/css">
	.st0{fill:#FFFFFF;}
</style>
<g id="XMLID_1_">
	<g>
		<path class="st0" d="M25.3,6.4c-0.7,1-1.5,1.9-2.5,2.6c0,0.2,0,0.4,0,0.7c0,6.7-5.1,14.4-14.4,14.4c-2.9,0-5.5-0.8-7.7-2.3
			c0.4,0.1,0.8,0.1,1.2,0.1c2.4,0,4.5-0.8,6.3-2.2c-2.2,0-4.1-1.5-4.7-3.5c0.3,0.1,0.6,0.1,1,0.1c0.5,0,0.9-0.1,1.3-0.2
			c-2.3-0.5-4-2.5-4-5V11c0.7,0.4,1.5,0.6,2.3,0.6c-1.4-0.9-2.2-2.4-2.2-4.2c0-0.9,0.2-1.8,0.7-2.5C4.9,8,8.6,10,12.8,10.2
			c-0.1-0.4-0.1-0.8-0.1-1.1c0-2.8,2.2-5.1,5.1-5.1c1.5,0,2.8,0.6,3.7,1.6c1.1-0.2,2.2-0.6,3.2-1.2c-0.4,1.2-1.2,2.2-2.2,2.8
			C23.4,7.1,24.4,6.8,25.3,6.4L25.3,6.4z"/>
	</g>
	<g>
	</g>
</g>
</svg>
